<?xml version="1.0" encoding="UTF-8"?>
<svg id="_图层_1" data-name="图层_1" xmlns="http://www.w3.org/2000/svg" viewBox="0 0 180 52">
  <defs>
    <style>
      .cls-1 {
        fill: #b60613;
      }
    </style>
  </defs>
  <path class="cls-1" d="M163.78,1.47h-28.32v1.51h28.32v-1.51ZM163.78,9.47h-28.32v1.48h28.32v-1.48ZM77.13,32.39v4.28h-2.96v-3.05h-1.63v4.67h10.79v-4.67h-1.63v3.05h-2.96v-4.28h-1.63ZM173.39,17.51c-1.79-.11-3.32-.93-4.24-1.71-.12.3-.57,1.42-.69,1.7.27.23.68.5,1.11.72,2.23,1.16,4.37,1.36,6.56.82,3.1-.77,4.37-3.51,3.71-5.92-.53-1.9-1.87-2.76-3.52-3.44-1.3-.54-2.57-.56-4.24-1.55-1.34-.79-1.73-2.7-.82-4,.78-1.11,2.08-1.48,3.84-1.23,1.73.24,2.93,1.09,3.69,1.72.12-.25.64-1.56.7-1.71-2.15-1.64-4.95-2.31-7.33-1.5-1.67.57-2.86,1.91-3.13,3.79-.24,1.7.48,3.54,2.33,4.64,1.31.78,2.3.83,4.22,1.47,1.42.48,2.62,1.42,2.63,2.9.01,2.17-1.75,3.47-4.8,3.29ZM103.24,34.76l-3.79-2.34-.85,1.38,3.79,2.34.85-1.38ZM137.96,40.44l3.28,2.02.85-1.38-3.28-2.02-.85,1.38ZM106.73,19.38h1.85v-7.89l6.78-10.42h-2.23l-5.44,8.37-5.38-8.37h-2.19l6.61,10.42v7.89ZM163.78,17.45h-28.32v1.48h28.32v-1.48ZM104.51,33.31v9.14h10.34v-9.2h-10.34v.06ZM106.13,34.88h7.09v5.95h-7.09v-5.95ZM139.22,34.91l-.85,1.38,3.28,2.02.85-1.38-3.28-2.02ZM67.5,12.25h5.18l2.93,7.11h2.01c-.3-.86-2.7-6.59-3.03-7.32,3-.32,4.86-4.13,3.87-6.98-.82-2.36-2.38-3.94-4.99-3.99-2.11-.04-7.5-.01-7.7,0v18.3h1.72v-7.11ZM67.5,2.87h6.01c.72,0,1.24.2,1.66.47,1.28.8,1.86,2.68,1.56,4.17-.17.83-.58,1.75-1.41,2.38-.51.39-1.46.54-2.31.54h-5.5V2.87ZM134.21,40.01v-.59h3.18v-1.63h-3.18v-2.63l2.49-.42-.27-1.6-6.33,1.08.27,1.6,2.21-.38v2.36h-3.18v1.63h2.78l-3.14,6.1,1.24,1.37,2.3-4.61v8.32h1.63v-8.27l1.85,1.85,1.1-1.24-2.95-2.92ZM130.85,13.11c-.53-1.9-1.87-2.76-3.52-3.44-1.3-.54-2.57-.56-4.24-1.55-1.34-.79-1.73-2.7-.82-4,.78-1.11,2.08-1.48,3.84-1.23,1.73.24,2.93,1.09,3.69,1.72.11-.25.64-1.56.7-1.71-2.15-1.64-4.95-2.31-7.33-1.5-1.67.57-2.86,1.91-3.13,3.79-.24,1.7.48,3.54,2.33,4.64,1.32.78,2.3.83,4.22,1.47,1.42.48,2.62,1.42,2.63,2.9,0,2.17-1.75,3.47-4.8,3.29-1.79-.11-3.32-.93-4.24-1.71-.12.3-.57,1.42-.7,1.7.27.23.68.5,1.11.72,2.24,1.16,4.37,1.36,6.56.82,3.1-.77,4.38-3.51,3.71-5.92ZM144.75,43.8v-11.38h-1.63v11.52l-6.78.55.13,1.62,6.65-.54v5.02h1.63v-5.15l2.85-.23-.13-1.62-2.72.22ZM167.56,41.2l-2.11.64v-4.44h2.68v-1.63h-2.68v-3.37h-1.63v3.37h-2.68v1.63h2.68v4.93l-2.68.82.23,1.63,2.45-.75v4.92h-1.96l.27,1.63h1.93c.86,0,1.39-.36,1.39-1.4v-5.65l2.36-.72-.25-1.62ZM178.55,41.38v-1.63h-3.72v-2.35h4.52v-1.63h-4.52v-3.36h-1.63v3.36h-4.52v1.63h4.52v2.35h-4.25v1.63h.81c.73,2.35,1.66,4.04,2.74,5.3-1.6,1.08-3.47,1.75-5.7,2.54.3.5.95,1.49.95,1.49,1.92-.63,4.05-1.35,6.01-2.78,1.45,1.18,3.1,1.86,4.84,2.43,0,0,.65-1.11.95-1.61-1.75-.51-3.17-1.21-4.33-2.07,1.27-1.27,2.42-2.96,3.31-5.28ZM171.66,41.38h5.04c-.81,1.81-1.72,3.12-2.74,4.12-1.09-1.17-1.83-2.55-2.3-4.12ZM111.42,44.29l2.58,6.3h1.93c-.66-1.61-1.6-3.9-2.6-6.3h-1.92ZM103.72,45.34l-2.18,1.46v-8.69h-3.99v1.63h2.36v7.36c0,.67-.22.92-.43,1.08-.06.05-.18.12-.18.12l.9,1.36,3.96-2.65-.43-1.66ZM71.94,41.22h4.72l-.67,1.41h-3.44v7.96h1.63v-6.34h1.58v5.42h1.63v-5.42h1.35v5.42h1.63v-5.42h1.35v4.71h-1.08l.28,1.63h1.03c.86,0,1.39-.36,1.39-1.4v-6.57h-5.55l.67-1.41h5.49v-1.63h-12.02v1.63ZM69.36,47.55v-6.33h2.01v-1.63h-2.01v-4.34h2.01v-1.63h-5.64v1.63h2.01v4.34h-2.01v1.63h2.01v6.74l-2.12.53.4,1.58,5.47-1.38-.4-1.58-1.73.43ZM0,51.24h50.47V.76H0v50.47ZM25.29,5.34c2.56,6,7.59,18.3,7.59,18.3h-2.04l-5.6-13.65-5.6,13.65h-2.01c2.57-5.99,5.06-12.28,7.65-18.3ZM11.07,26.9h28.32v1.51H11.07v-1.51ZM11.07,34.9h28.32v1.48H11.07v-1.48ZM11.07,42.88h28.32v1.48H11.07v-1.48ZM103.43,50.59h1.87l2.58-6.3h-1.84c-.87,2.11-1.74,4.22-2.62,6.3ZM90.47,1.06c-2.59,6.03-5.07,12.31-7.65,18.3h2.01l5.6-13.65,5.6,13.65h2.04s-5.03-12.3-7.59-18.3Z"/>
</svg>