<svg preserveAspectRatio="none" width="100%" height="100%" overflow="visible" style="display: block;" viewBox="0 0 24 24" fill="none" xmlns="http://www.w3.org/2000/svg">
<g id="SVG">
<path id="Vector" d="M15.0802 8.91205C15.3922 8.91205 15.6962 8.93605 15.9922 8.97605C15.4482 6.60005 12.9522 4.80005 9.95224 4.80005C6.55224 4.80005 3.79224 7.10405 3.79224 9.94405C3.79224 11.584 4.71224 13.032 6.14424 13.976L5.33624 15.6L7.54424 14.648C8.01624 14.816 8.51224 14.952 9.04024 15.024C8.96824 14.712 8.92824 14.392 8.92824 14.056C8.92024 11.224 11.6802 8.91205 15.0802 8.91205ZM12.0002 7.11205C12.1011 7.11205 12.201 7.13191 12.2941 7.17051C12.3873 7.2091 12.472 7.26568 12.5433 7.33699C12.6146 7.40831 12.6712 7.49297 12.7098 7.58615C12.7484 7.67933 12.7682 7.77919 12.7682 7.88005C12.7682 7.9809 12.7484 8.08077 12.7098 8.17395C12.6712 8.26713 12.6146 8.35179 12.5433 8.42311C12.472 8.49442 12.3873 8.55099 12.2941 8.58959C12.201 8.62818 12.1011 8.64805 12.0002 8.64805C11.7966 8.64805 11.6012 8.56713 11.4572 8.42311C11.3132 8.27908 11.2322 8.08374 11.2322 7.88005C11.2322 7.67636 11.3132 7.48102 11.4572 7.33699C11.6012 7.19296 11.7966 7.11205 12.0002 7.11205ZM7.89624 8.65605C7.69255 8.65605 7.49721 8.57513 7.35318 8.43111C7.20915 8.28708 7.12824 8.09174 7.12824 7.88805C7.12824 7.68436 7.20915 7.48902 7.35318 7.34499C7.49721 7.20096 7.69255 7.12005 7.89624 7.12005C8.09992 7.12005 8.29527 7.20096 8.43929 7.34499C8.58332 7.48902 8.66424 7.68436 8.66424 7.88805C8.66424 8.09174 8.58332 8.28708 8.43929 8.43111C8.29527 8.57513 8.09992 8.65605 7.89624 8.65605Z" fill="var(--fill-0, black)" fill-opacity="0.4"/>
<path id="Vector_2" d="M20.2081 14.0558C20.2081 11.7838 17.9121 9.94385 15.0801 9.94385C12.2481 9.94385 9.95215 11.7838 9.95215 14.0558C9.95215 16.3278 12.2481 18.1678 15.0801 18.1678C15.5441 18.1678 15.9921 18.1038 16.4161 18.0078L19.1841 19.1998L18.2241 17.2798C19.4241 16.5278 20.2081 15.3758 20.2081 14.0558ZM13.5361 13.7998C13.3843 13.7998 13.2358 13.7548 13.1095 13.6704C12.9832 13.586 12.8847 13.4661 12.8266 13.3257C12.7685 13.1854 12.7533 13.031 12.7829 12.882C12.8125 12.733 12.8857 12.5962 12.9931 12.4888C13.1005 12.3814 13.2373 12.3082 13.3863 12.2786C13.5353 12.249 13.6897 12.2642 13.83 12.3223C13.9704 12.3804 14.0903 12.4789 14.1747 12.6052C14.2591 12.7315 14.3041 12.88 14.3041 13.0318C14.3121 13.4558 13.9601 13.7998 13.5361 13.7998ZM16.6161 13.7998C16.4125 13.7998 16.2171 13.7189 16.0731 13.5749C15.9291 13.4309 15.8481 13.2355 15.8481 13.0318C15.8481 12.8282 15.9291 12.6328 16.0731 12.4888C16.2171 12.3448 16.4125 12.2638 16.6161 12.2638C16.8198 12.2638 17.0152 12.3448 17.1592 12.4888C17.3032 12.6328 17.3841 12.8282 17.3841 13.0318C17.3841 13.2355 17.3032 13.4309 17.1592 13.5749C17.0152 13.7189 16.8198 13.7998 16.6161 13.7998Z" fill="var(--fill-0, black)" fill-opacity="0.4"/>
</g>
</svg>
