<svg preserveAspectRatio="none" width="100%" height="100%" overflow="visible" style="display: block;" viewBox="0 0 24 24" fill="none" xmlns="http://www.w3.org/2000/svg">
<g id="SVG">
<path id="Vector" fill-rule="evenodd" clip-rule="evenodd" d="M9.94344 9.5752H12.9146V11.0552C13.3426 10.204 14.4402 9.4392 16.089 9.4392C19.2498 9.4392 20.0002 11.1336 20.0002 14.2424V20H16.8002V14.9504C16.8002 13.18 16.3722 12.1816 15.2826 12.1816C13.7714 12.1816 13.1434 13.2576 13.1434 14.9496V20H9.94344V9.5752ZM4.45624 19.864H7.65624V9.4392H4.45624V19.864ZM8.11464 6.04C8.11476 6.30822 8.06157 6.57379 7.95815 6.82127C7.85474 7.06875 7.70317 7.29321 7.51224 7.4816C7.32076 7.67209 7.09361 7.82299 6.84378 7.92567C6.59396 8.02834 6.32635 8.08079 6.05624 8.08C5.51193 8.07878 4.98978 7.86423 4.60184 7.4824C4.41168 7.29332 4.26067 7.0686 4.15744 6.8211C4.05421 6.57359 4.00079 6.30817 4.00024 6.04C4.00024 5.4984 4.21624 4.98 4.60264 4.5976C4.98961 4.21431 5.51238 3.9995 6.05704 4C6.60264 4 7.12584 4.2152 7.51224 4.5976C7.89864 4.98 8.11464 5.4984 8.11464 6.04Z" fill="var(--fill-0, black)" fill-opacity="0.4"/>
</g>
</svg>
