<svg preserveAspectRatio="none" width="100%" height="100%" overflow="visible" style="display: block;" viewBox="0 0 32 32" fill="none" xmlns="http://www.w3.org/2000/svg">
<g id="SVG" clip-path="url(#clip0_0_6)">
<path id="Vector" d="M29.873 13.1718C29.8757 13.1932 29.8864 13.1985 29.9664 13.1972H30.933C31.0927 13.1976 31.2504 13.1622 31.3944 13.0933C31.5385 13.0245 31.6652 12.9241 31.7651 12.7996C31.865 12.6751 31.9356 12.5296 31.9716 12.3741C32.0076 12.2186 32.0081 12.0569 31.973 11.9012C31.9164 11.6406 31.7636 11.4111 31.5451 11.2583C31.3266 11.1055 31.0585 11.0409 30.7944 11.0772C30.5379 11.1107 30.3025 11.2368 30.1326 11.4318C29.9626 11.6268 29.8698 11.8772 29.8717 12.1358C29.8717 12.2705 29.869 13.0238 29.873 13.1718ZM14.5277 19.5825C14.257 19.5838 12.7237 19.5878 12.281 19.5865C11.9339 19.584 11.5893 19.5273 11.2597 19.4185C11.2519 19.4162 11.2435 19.4168 11.2362 19.4203C11.2288 19.4237 11.2229 19.4297 11.2197 19.4372L10.2664 21.5025C10.2629 21.51 10.2624 21.5185 10.2648 21.5264C10.2673 21.5343 10.2726 21.541 10.2797 21.5452C10.4277 21.6252 10.7277 21.7105 10.9397 21.7105C11.8197 21.7238 12.6997 21.7132 13.581 21.7105C13.5961 21.7105 13.6064 21.7038 13.6117 21.6905L14.561 19.6305C14.5636 19.6252 14.5648 19.6194 14.5644 19.6136C14.564 19.6078 14.5621 19.6021 14.5589 19.5973C14.5556 19.5924 14.5512 19.5885 14.5459 19.5859C14.5407 19.5833 14.5349 19.5821 14.529 19.5825H14.5277ZM0.635699 13.2132C0.541032 13.2132 0.534365 13.2158 0.534365 13.2265L0.521032 13.3332C0.485032 13.8625 0.470365 13.9932 0.209032 17.4132C0.193032 17.7332 0.163699 17.9318 0.0290321 18.2225C-0.00563454 18.2985 -0.0149679 18.2785 0.0330321 18.3718C0.0943655 18.4945 0.941032 20.4025 1.08237 20.6918C1.09303 20.7118 1.09703 20.7185 1.10503 20.7185C1.1157 20.7185 1.14903 20.6838 1.1677 20.6598C1.36237 20.4092 1.52725 20.1398 1.66237 19.8518C2.07037 19.0052 2.24903 18.0852 2.31037 17.5772C2.32903 17.4305 2.33837 17.2838 2.35037 17.1372L2.62237 13.6492L2.6517 13.2585C2.6557 13.2198 2.6517 13.2145 2.6117 13.2132H0.635699ZM10.2397 18.2225C10.1198 17.9696 10.0583 17.693 10.0597 17.4132C10.0544 17.3012 10.0184 16.8932 9.74636 13.3332C9.74571 13.2963 9.74124 13.2597 9.73303 13.2238C9.7277 13.2092 9.6637 13.2132 9.6317 13.2132H7.65836C7.61836 13.2145 7.61303 13.2198 7.61837 13.2585L7.64637 13.6492C7.7477 14.9585 7.85125 16.2678 7.95703 17.5772C8.0237 18.1105 8.20503 19.0238 8.60636 19.8518C8.7437 20.1385 8.9037 20.4105 9.0997 20.6598C9.1197 20.6838 9.14903 20.7278 9.1637 20.7252C9.19036 20.7212 10.153 18.5358 10.2357 18.3718C10.2837 18.2785 10.2757 18.2985 10.2397 18.2225ZM15.3877 17.0052H14.225C14.1968 17.0054 14.169 16.9986 14.1441 16.9853C14.1192 16.9719 14.0981 16.9525 14.0826 16.9289C14.0672 16.9052 14.058 16.8781 14.0559 16.8499C14.0537 16.8218 14.0587 16.7935 14.0704 16.7678L15.641 13.2678C15.6432 13.2627 15.6442 13.2572 15.6437 13.2517C15.6432 13.2461 15.6414 13.2408 15.6383 13.2362C15.6353 13.2315 15.6311 13.2277 15.6263 13.2251C15.6214 13.2225 15.6159 13.2211 15.6104 13.2212L13.853 13.2172C13.8199 13.2173 13.7872 13.2091 13.758 13.1932C13.7289 13.1774 13.7042 13.1544 13.6862 13.1265C13.6683 13.0986 13.6577 13.0666 13.6554 13.0335C13.6531 13.0004 13.6591 12.9673 13.673 12.9372L14.841 10.3318C14.8432 10.3267 14.8442 10.3212 14.8437 10.3157C14.8432 10.3101 14.8414 10.3048 14.8383 10.3002C14.8353 10.2955 14.8311 10.2917 14.8263 10.2891C14.8214 10.2865 14.8159 10.2851 14.8104 10.2852H12.7304C12.7153 10.2852 12.7046 10.2918 12.6984 10.3052L11.4637 13.0625C11.3504 13.2878 11.045 13.9078 10.9317 14.3132C10.9064 14.3955 10.8974 14.482 10.905 14.5678C10.9097 14.6708 10.9402 14.771 10.9938 14.8591C11.0474 14.9472 11.1223 15.0204 11.2117 15.0718C11.4004 15.1732 11.6108 15.2276 11.825 15.2305H12.6117C12.6664 15.2305 11.6944 17.2065 11.4997 17.8598C11.4762 17.9339 11.4658 18.0115 11.469 18.0892C11.4704 18.1965 11.4994 18.3016 11.5531 18.3945C11.6068 18.4875 11.6834 18.565 11.7757 18.6198C11.9757 18.7425 12.2317 18.7798 12.409 18.7798L14.6224 18.7785C14.6375 18.7785 14.6477 18.7718 14.653 18.7585L15.4197 17.0518C15.422 17.0466 15.4229 17.041 15.4223 17.0353C15.4218 17.0297 15.4199 17.0243 15.4167 17.0196C15.4134 17.0149 15.4091 17.0112 15.404 17.0086C15.399 17.0061 15.3934 17.0049 15.3877 17.0052ZM6.1477 10.4225H4.13303C4.12709 10.4221 4.12114 10.423 4.11556 10.425C4.10998 10.4271 4.10489 10.4303 4.10063 10.4345C4.09636 10.4386 4.093 10.4436 4.09077 10.4491C4.08855 10.4546 4.0875 10.4605 4.0877 10.4665C4.0877 11.8638 4.07437 14.1932 4.07437 19.5718C4.07437 19.9558 3.7157 19.9212 3.70103 19.9212H2.71437C2.66103 19.9225 2.6557 19.9265 2.66103 19.9838C2.66237 20.0332 3.28103 21.4025 3.40103 21.6678C3.41437 21.6945 3.44103 21.7118 3.46903 21.7118C3.67837 21.7158 4.4917 21.7238 4.7197 21.6932C4.9237 21.6665 5.1197 21.6132 5.3037 21.5172C5.7037 21.3092 5.95703 20.9585 6.09703 20.4972C6.16636 20.2678 6.19703 20.0265 6.19703 19.7865C6.1997 16.6798 6.19659 13.5727 6.1877 10.4652C6.18809 10.4595 6.18726 10.4537 6.18526 10.4484C6.18325 10.443 6.18012 10.4382 6.17608 10.4341C6.17203 10.4301 6.16717 10.4269 6.16182 10.4249C6.15646 10.4229 6.15074 10.4221 6.14503 10.4225H6.1477ZM21.8597 19.6172C21.8579 19.5994 21.8473 19.5896 21.8277 19.5878H19.8744C19.8104 19.5865 19.809 19.5852 19.8077 19.5225V13.3092C19.8077 13.2132 19.801 13.2158 19.901 13.2158H21.0517C21.1584 13.2158 21.1517 13.2212 21.1517 13.1172V11.1905C21.1517 11.0812 21.1597 11.0892 21.045 11.0892H16.3784C16.293 11.0892 16.2784 11.0812 16.2784 11.1865V13.1132C16.2784 13.2238 16.2704 13.2158 16.385 13.2158H17.5237C17.6237 13.2158 17.617 13.2105 17.617 13.3092V19.4745C17.617 19.6012 17.6277 19.5865 17.5037 19.5865C17.0104 19.5865 16.0237 19.5838 15.765 19.5865C15.701 19.5878 15.685 19.6265 15.685 19.6265L14.7557 21.6518C14.7557 21.6518 14.737 21.6852 14.745 21.6998C14.753 21.7145 14.7624 21.7105 14.8224 21.7105C17.153 21.7132 19.4833 21.714 21.813 21.7132C21.853 21.7118 21.8584 21.7052 21.8597 21.6692V19.6172ZM27.429 15.0438C27.429 15.0625 27.4201 15.0732 27.4024 15.0758C26.941 15.0838 26.4797 15.0812 26.0197 15.0812C26.001 15.0785 25.9913 15.0678 25.9904 15.0492C25.985 14.4705 25.9806 13.8914 25.977 13.3118C25.977 13.2158 25.969 13.2172 26.0704 13.2185L27.0477 13.2145C27.1024 13.2145 27.1557 13.2172 27.2077 13.2345C27.3317 13.2678 27.421 13.3772 27.4277 13.5065C27.4357 14.0812 27.429 15.0438 27.429 15.0438ZM30.989 15.3692C30.6254 15.179 30.222 15.0775 29.8117 15.0732H29.5717C29.5184 15.0718 29.5184 15.0692 29.5157 15.0198V13.6132C29.5166 13.4372 29.5055 13.262 29.4824 13.0878C29.4511 12.8432 29.3823 12.6048 29.2784 12.3812C29.0895 11.9751 28.7723 11.6424 28.3757 11.4345C27.9648 11.2157 27.5078 11.0977 27.0424 11.0905C26.8384 11.0865 26.2864 11.0905 26.0824 11.0905C25.989 11.0905 25.9917 11.0958 25.9917 11.0038V10.3465C25.9917 10.3052 25.9784 10.2918 25.9304 10.2945H23.9064C23.9064 10.2945 23.885 10.2945 23.8757 10.3038C23.8686 10.3109 23.865 10.3212 23.865 10.3345V11.0625C23.8544 11.1105 23.789 11.0825 23.7557 11.0918H22.489C22.4597 11.0945 22.4517 11.1025 22.449 11.1345V13.1092C22.449 13.2292 22.4437 13.2185 22.5584 13.2185H23.7757C23.885 13.2185 23.8717 13.3892 23.8717 13.3892V14.9198C23.8717 14.9198 23.8757 15.0758 23.7917 15.0758H21.8157C21.725 15.0758 21.7357 15.1852 21.7357 15.1852V17.1118C21.7357 17.1118 21.7224 17.2025 21.821 17.2025H23.7637C23.873 17.2025 23.865 17.1945 23.865 17.3078V21.6078C23.865 21.7252 23.8557 21.7158 23.9744 21.7158H25.881C26.001 21.7158 25.9904 21.7252 25.9904 21.6092V17.2492C25.9904 17.2105 25.9984 17.2025 26.0344 17.2025L29.1317 17.1985C29.2604 17.1996 29.3875 17.2273 29.505 17.2798C29.6109 17.3266 29.7014 17.4024 29.7661 17.4984C29.8307 17.5944 29.8669 17.7068 29.8704 17.8225C29.881 18.3492 29.8744 18.8758 29.8744 19.4025C29.8744 19.7478 29.7317 19.8918 29.4344 19.8918H27.8104C27.7797 19.8945 27.7717 19.9025 27.773 19.9358C28.0184 20.518 28.2717 21.0972 28.533 21.6732C28.5383 21.6829 28.546 21.6912 28.5553 21.6973C28.5646 21.7033 28.5753 21.7069 28.5864 21.7078C28.813 21.7145 29.0397 21.7105 29.2664 21.7118C29.4664 21.7092 29.9557 21.7172 30.1544 21.6985C30.3387 21.6841 30.521 21.6506 30.6984 21.5985C31.485 21.3585 31.9984 20.6678 31.9997 19.8478V17.2065C32.0006 17.0367 31.9855 16.8678 31.9544 16.6998C31.9544 16.8038 31.9157 15.8452 30.989 15.3692Z" fill="var(--fill-0, black)" fill-opacity="0.4"/>
</g>
<defs>
<clipPath id="clip0_0_6">
<rect width="32" height="32" fill="white"/>
</clipPath>
</defs>
</svg>
